<svg width="52" height="51" viewBox="0 0 52 51" fill="none" xmlns="http://www.w3.org/2000/svg">
<path d="M28.0398 4.19556C30.3998 4.20185 31.5977 4.21444 32.6319 4.24381L33.0389 4.25849C33.5088 4.27527 33.9724 4.29625 34.5325 4.32143C36.7646 4.42632 38.2876 4.77875 39.6239 5.29691C41.0084 5.82975 42.1748 6.5514 43.3412 7.71568C44.4083 8.76403 45.2338 10.0327 45.76 11.433C46.2781 12.7693 46.6306 14.2923 46.7355 16.5265C46.7606 17.0845 46.7816 17.5481 46.7984 18.0201L46.811 18.4271C46.8424 19.4592 46.855 20.6571 46.8592 23.0171L46.8613 24.5821V27.3302C46.8664 28.8604 46.8503 30.3905 46.8131 31.9202L46.8005 32.3272C46.7837 32.7992 46.7627 33.2628 46.7376 33.8208C46.6327 36.055 46.276 37.5759 45.76 38.9143C45.2338 40.3147 44.4083 41.5833 43.3412 42.6316C42.2929 43.6988 41.0242 44.5242 39.6239 45.0504C38.2876 45.5686 36.7646 45.921 34.5325 46.0259L33.0389 46.0888L32.6319 46.1014C31.5977 46.1308 30.3998 46.1455 28.0398 46.1497L26.4748 46.1518H23.7288C22.1979 46.1572 20.6671 46.1411 19.1367 46.1035L18.7297 46.0909C18.2317 46.0721 17.7338 46.0504 17.2361 46.0259C15.004 45.921 13.481 45.5686 12.1426 45.0504C10.743 44.524 9.47508 43.6985 8.42735 42.6316C7.35945 41.5835 6.53325 40.3148 6.00647 38.9143C5.48832 37.578 5.13588 36.055 5.03099 33.8208L4.96806 32.3272L4.95757 31.9202C4.9189 30.3905 4.90141 28.8604 4.90512 27.3302V23.0171C4.89932 21.487 4.9147 19.9568 4.95128 18.4271L4.96596 18.0201C4.98274 17.5481 5.00372 17.0845 5.02889 16.5265C5.13379 14.2923 5.48622 12.7714 6.00438 11.433C6.53238 10.0321 7.36003 8.7634 8.42945 7.71568C9.47657 6.64905 10.7437 5.82361 12.1426 5.29691C13.481 4.77875 15.0019 4.42632 17.2361 4.32143C17.7941 4.29625 18.2598 4.27527 18.7297 4.25849L19.1367 4.2459C20.6664 4.20863 22.1965 4.19255 23.7267 4.19765L28.0398 4.19556ZM25.8832 14.6846C23.1014 14.6846 20.4334 15.7897 18.4663 17.7568C16.4993 19.7239 15.3942 22.3918 15.3942 25.1737C15.3942 27.9555 16.4993 30.6235 18.4663 32.5905C20.4334 34.5576 23.1014 35.6627 25.8832 35.6627C28.6651 35.6627 31.333 34.5576 33.3001 32.5905C35.2672 30.6235 36.3723 27.9555 36.3723 25.1737C36.3723 22.3918 35.2672 19.7239 33.3001 17.7568C31.333 15.7897 28.6651 14.6846 25.8832 14.6846ZM25.8832 18.8802C26.7097 18.8801 27.5281 19.0427 28.2917 19.3589C29.0553 19.675 29.7492 20.1385 30.3337 20.7228C30.9182 21.3071 31.3818 22.0008 31.6982 22.7643C32.0146 23.5278 32.1776 24.3461 32.1777 25.1726C32.1778 25.9991 32.0152 26.8175 31.699 27.5811C31.3829 28.3447 30.9194 29.0385 30.3351 29.623C29.7508 30.2075 29.0571 30.6712 28.2936 30.9876C27.5301 31.304 26.7118 31.4669 25.8853 31.4671C24.2162 31.4671 22.6154 30.804 21.4352 29.6238C20.2549 28.4435 19.5919 26.8428 19.5919 25.1737C19.5919 23.5045 20.2549 21.9038 21.4352 20.7235C22.6154 19.5433 24.2162 18.8802 25.8853 18.8802M36.8988 11.5379C36.2034 11.5379 35.5364 11.8142 35.0446 12.3059C34.5528 12.7977 34.2766 13.4647 34.2766 14.1602C34.2766 14.8556 34.5528 15.5226 35.0446 16.0144C35.5364 16.5061 36.2034 16.7824 36.8988 16.7824C37.5943 16.7824 38.2613 16.5061 38.753 16.0144C39.2448 15.5226 39.5211 14.8556 39.5211 14.1602C39.5211 13.4647 39.2448 12.7977 38.753 12.3059C38.2613 11.8142 37.5943 11.5379 36.8988 11.5379Z" fill="white"/>
</svg>
