<svg width="44" height="43" viewBox="0 0 44 43" fill="none" xmlns="http://www.w3.org/2000/svg">
<path d="M9.97495 13.8275V42.1514H0.543544V13.8275H9.97495ZM10.5746 5.08314L10.5781 5.25446C10.5781 6.56385 10.0222 7.74212 9.13408 8.56726L9.13058 8.569C8.60728 9.04722 7.99442 9.41703 7.3274 9.65708C6.66038 9.89712 5.95242 10.0026 5.24439 9.96754H5.25662H5.19893C4.5072 9.99985 3.81605 9.89251 3.16669 9.65193C2.51734 9.41135 1.92309 9.04246 1.41938 8.56726L1.42113 8.569C0.953678 8.11799 0.58551 7.57437 0.340176 6.97292C0.0948408 6.37147 -0.0222596 5.72544 -0.00363498 5.07615V5.08314L-0.00538315 4.96252C-0.00538315 3.63041 0.561026 2.43116 1.46483 1.59029L1.46833 1.58854C2.51858 0.633056 3.90466 0.132684 5.32306 0.196994H5.31257C6.0076 0.162728 6.70245 0.268055 7.3561 0.506757C8.00975 0.745459 8.60896 1.1127 9.11834 1.58679L9.11485 1.5833C9.57707 2.02762 9.94465 2.56083 10.1955 3.15086C10.4464 3.7409 10.5753 4.37557 10.5746 5.01671V5.09014V5.08664V5.08314ZM43.8983 25.9214V42.1514H34.4966V27.0035C34.5924 25.3412 34.1809 23.6891 33.3166 22.266L33.3376 22.3027C32.9304 21.7307 32.3823 21.2736 31.7464 20.9759C31.1105 20.6782 30.4084 20.5499 29.7084 20.6034H29.7223C28.6281 20.5638 27.5557 20.9159 26.698 21.5964L26.7085 21.5894C25.9166 22.2282 25.2965 23.0544 24.9044 23.9932L24.8904 24.0334C24.6523 24.785 24.5464 25.5723 24.5775 26.3602V26.3479V42.1549H15.1758C15.2142 34.5527 15.2335 28.3886 15.2335 23.6627C15.2335 18.9368 15.2241 16.117 15.2055 15.2033L15.1775 13.831H24.5792V17.9462H24.5215C24.8956 17.3431 25.282 16.8204 25.7068 16.3309L25.6928 16.3466C26.1834 15.807 26.7126 15.3187 27.2801 14.8817L27.3081 14.8607C28.0353 14.3021 28.8607 13.8847 29.7416 13.63L29.794 13.6177C30.8148 13.3212 31.8725 13.1717 32.9355 13.1737H33.0736H33.0666C34.532 13.1129 35.993 13.3707 37.3491 13.9294C38.7051 14.4881 39.9238 15.3342 40.9212 16.4096L40.9264 16.4166C42.91 18.5796 43.9018 21.7473 43.9018 25.9196L43.8983 25.9214Z" fill="white"/>
</svg>
