<svg width="51" height="51" viewBox="0 0 51 51" fill="none" xmlns="http://www.w3.org/2000/svg">
<path d="M21.0919 31.4674L31.9796 25.1739L21.0919 18.8805V31.4674ZM45.3426 15.0415C45.6153 16.0275 45.8041 17.3491 45.93 19.0273C46.0769 20.7056 46.1398 22.1531 46.1398 23.4118L46.2657 25.1739C46.2657 29.7681 45.93 33.1456 45.3426 35.3064C44.8182 37.1944 43.6014 38.4111 41.7134 38.9356C40.7274 39.2083 38.9233 39.3971 36.1542 39.5229C33.4271 39.6698 30.9307 39.7327 28.6231 39.7327L25.2876 39.8586C16.4977 39.8586 11.0224 39.5229 8.8617 38.9356C6.97367 38.4111 5.75694 37.1944 5.23248 35.3064C4.95977 34.3204 4.77097 32.9988 4.6451 31.3205C4.49825 29.6423 4.43532 28.1948 4.43532 26.9361L4.30945 25.1739C4.30945 20.5797 4.6451 17.2023 5.23248 15.0415C5.75694 13.1535 6.97367 11.9367 8.8617 11.4123C9.84767 11.1396 11.6518 10.9508 14.4209 10.8249C17.148 10.6781 19.6444 10.6151 21.952 10.6151L25.2876 10.4893C34.0774 10.4893 39.5527 10.8249 41.7134 11.4123C43.6014 11.9367 44.8182 13.1535 45.3426 15.0415Z" fill="white"/>
</svg>
