<?xml version="1.0" encoding="UTF-8"?>
<svg xmlns="http://www.w3.org/2000/svg" xmlns:xlink="http://www.w3.org/1999/xlink" width="1120px" height="375px" viewBox="0 0 1120 375" version="1.1">
<defs>
<clipPath id="clip1">
  <path d="M 31 85 L 150 85 L 150 290 L 31 290 Z M 31 85 "/>
</clipPath>
<clipPath id="clip2">
  <path d="M 69.921875 91.925781 C 48.054688 105.703125 33.75 139.484375 31.410156 176.921875 L 115.644531 176.921875 L 108.460938 207.695312 L 32.210938 207.695312 C 32.789062 212.664062 33.585938 217.617188 34.617188 222.523438 C 35.585938 227.136719 36.742188 231.542969 38.039062 235.757812 L 101.921875 235.757812 L 94.738281 266.53125 L 52.695312 266.53125 C 63.082031 281.15625 76.1875 289.40625 89.777344 289.476562 L 90.117188 289.476562 C 96.769531 289.441406 103.535156 287.449219 110.152344 283.277344 C 140.761719 263.992188 156.566406 205.519531 145.457031 152.679688 C 136.769531 111.367188 114.199219 85.722656 90.136719 85.71875 C 83.425781 85.722656 76.597656 87.71875 69.921875 91.925781 "/>
</clipPath>
<linearGradient id="linear0" gradientUnits="userSpaceOnUse" x1="1.0352" y1="373.535614" x2="2.0352" y2="373.535614" gradientTransform="matrix(-40.230299,-191.355228,-110.531772,69.647649,41442.854451,-25536.883904)">
<stop offset="0" style="stop-color:rgb(0%,100%,100%);stop-opacity:1;"/>
<stop offset="0.0874" style="stop-color:rgb(0%,96.470588%,97.647059%);stop-opacity:1;"/>
<stop offset="0.2302" style="stop-color:rgb(0%,87.058824%,90.980392%);stop-opacity:1;"/>
<stop offset="0.4105" style="stop-color:rgb(0%,71.372549%,80.392157%);stop-opacity:1;"/>
<stop offset="0.6194" style="stop-color:rgb(0%,49.803922%,65.882353%);stop-opacity:1;"/>
<stop offset="0.6485" style="stop-color:rgb(0%,46.666667%,63.529412%);stop-opacity:1;"/>
<stop offset="0.8752" style="stop-color:rgb(0%,0%,31.372549%);stop-opacity:1;"/>
<stop offset="1" style="stop-color:rgb(0%,0%,31.372549%);stop-opacity:1;"/>
</linearGradient>
</defs>
<g id="surface1">
<path style=" stroke:none;fill-rule:nonzero;fill:rgb(0%,27.450982%,53.725493%);fill-opacity:1;" d="M 594.367188 156.550781 L 580.304688 156.550781 L 580.304688 266.871094 L 594.367188 266.871094 Z M 306.027344 156.550781 L 291.964844 156.550781 L 291.964844 266.871094 L 306.027344 266.871094 Z M 192.425781 201.234375 C 192.796875 186.910156 197.363281 175.363281 207.601562 175.363281 C 217.222656 175.363281 221.785156 186.695312 221.90625 201.234375 Z M 192.304688 218.550781 L 236.339844 218.550781 L 236.339844 208.289062 C 236.339844 177.929688 226.226562 154.628906 207.601562 154.628906 C 187.492188 154.628906 177.75 180.070312 177.75 211.710938 C 177.75 243.78125 188.480469 268.796875 207.847656 268.796875 C 221.511719 268.796875 231.519531 256.269531 234.644531 239.101562 L 221.734375 233.53125 C 220.214844 242.378906 215.550781 248.273438 207.847656 248.273438 C 197.484375 248.269531 192.304688 236.085938 192.304688 218.550781 M 279.84375 128 L 282.726562 108.335938 C 280.527344 107.496094 277.5625 106.523438 274.265625 106.523438 C 261.316406 106.523438 252.1875 120.632812 252.1875 143.082031 L 252.1875 156.550781 L 240.964844 156.550781 L 240.964844 177.074219 L 252.1875 177.074219 L 252.1875 266.871094 L 266.25 266.871094 L 266.25 177.074219 L 281.542969 177.074219 L 281.542969 156.550781 L 266.25 156.550781 L 266.25 143.082031 C 266.25 132.394531 269.824219 127.476562 275.992188 127.476562 C 277.230469 127.476562 278.542969 127.703125 279.84375 128 M 307.816406 125.441406 C 307.816406 117.074219 303.921875 110.289062 299.113281 110.289062 C 294.304688 110.289062 290.40625 117.074219 290.40625 125.441406 C 290.40625 133.804688 294.304688 140.59375 299.113281 140.59375 C 303.921875 140.59375 307.816406 133.804688 307.816406 125.441406 M 359.972656 266.871094 L 374.03125 266.871094 L 374.03125 194.820312 C 374.03125 169.804688 365.273438 154.628906 351.089844 154.628906 C 341.960938 154.628906 335.917969 161.46875 332.464844 170.875 L 331.972656 170.875 L 330.859375 156.550781 L 318.402344 156.550781 L 318.402344 266.871094 L 332.464844 266.871094 L 332.464844 205.9375 C 332.464844 187.554688 338.136719 176.648438 347.019531 176.648438 C 355.898438 176.648438 359.972656 185.414062 359.972656 200.808594 Z M 423.925781 225.179688 C 423.925781 238.222656 417.882812 249.339844 408.507812 249.339844 C 400.859375 249.339844 397.160156 242.496094 397.160156 233.519531 C 397.160156 223.683594 401.601562 217.695312 410.109375 217.695312 C 414.796875 217.695312 419.238281 218.765625 423.925781 221.546875 Z M 425.527344 266.871094 L 437.863281 266.871094 L 437.863281 193.324219 C 437.863281 171.515625 428.363281 154.628906 411.589844 154.628906 C 397.347656 154.628906 388.316406 166.972656 386.460938 184.40625 L 399.472656 190.023438 C 399.925781 181.582031 403.917969 174.722656 411.34375 174.722656 C 420.222656 174.722656 423.925781 183.273438 423.925781 193.535156 L 423.925781 203.796875 C 420.59375 202.085938 414.921875 200.164062 409.125 200.164062 C 390.867188 200.164062 383.097656 215.128906 383.097656 234.371094 C 383.097656 253.828125 391.238281 268.792969 405.300781 268.792969 C 413.808594 268.792969 420.347656 263.230469 424.046875 253.828125 L 424.542969 253.828125 Z M 490.921875 266.871094 L 504.984375 266.871094 L 504.984375 194.820312 C 504.984375 169.804688 496.226562 154.628906 482.039062 154.628906 C 472.914062 154.628906 466.871094 161.46875 463.414062 170.875 L 462.921875 170.875 L 461.8125 156.550781 L 449.351562 156.550781 L 449.351562 266.871094 L 463.414062 266.871094 L 463.414062 205.9375 C 463.414062 187.554688 469.089844 176.648438 477.96875 176.648438 C 486.851562 176.648438 490.921875 185.414062 490.921875 200.808594 Z M 528.355469 211.710938 C 528.355469 190.332031 533.164062 176.21875 544.019531 176.21875 C 551.816406 176.21875 556.828125 184.164062 557.542969 196.300781 L 571.152344 190.425781 C 569.03125 169.847656 560.273438 154.628906 544.019531 154.628906 C 524.53125 154.628906 514.046875 177.71875 514.046875 211.710938 C 514.046875 245.917969 524.777344 268.792969 544.390625 268.792969 C 560.328125 268.792969 569.0625 254.019531 571.269531 232.804688 L 557.707031 226.949219 C 556.953125 239.527344 552.027344 247.414062 544.019531 247.414062 C 533.164062 247.414062 528.355469 233.519531 528.355469 211.710938 M 595.605469 125.441406 C 595.605469 117.074219 591.707031 110.289062 586.898438 110.289062 C 582.089844 110.289062 578.195312 117.074219 578.195312 125.441406 C 578.195312 133.804688 582.089844 140.59375 586.898438 140.59375 C 591.707031 140.59375 595.605469 133.804688 595.605469 125.441406 M 644.257812 225.179688 C 644.257812 238.222656 638.214844 249.339844 628.839844 249.339844 C 621.195312 249.339844 617.492188 242.496094 617.492188 233.519531 C 617.492188 223.683594 621.933594 217.695312 630.445312 217.695312 C 635.132812 217.695312 639.570312 218.765625 644.257812 221.546875 Z M 645.863281 266.871094 L 658.199219 266.871094 L 658.199219 193.324219 C 658.199219 171.515625 648.699219 154.628906 631.925781 154.628906 C 617.507812 154.628906 608.4375 167.28125 606.746094 185.058594 L 619.753906 190.675781 C 620.023438 181.929688 624.058594 174.722656 631.675781 174.722656 C 640.558594 174.722656 644.257812 183.277344 644.257812 193.539062 L 644.257812 203.800781 C 640.929688 202.089844 635.257812 200.167969 629.457031 200.167969 C 611.203125 200.167969 603.429688 215.132812 603.429688 234.371094 C 603.429688 253.828125 611.574219 268.792969 625.632812 268.792969 C 634.148438 268.792969 640.683594 263.234375 644.382812 253.828125 L 644.875 253.828125 Z M 669.6875 266.871094 L 683.75 266.871094 L 683.75 108.65625 L 669.6875 108.65625 Z M 707.125 211.710938 C 707.125 190.332031 711.933594 176.21875 722.789062 176.21875 C 730.664062 176.21875 735.707031 184.304688 736.347656 196.648438 L 736.871094 196.539062 L 749.988281 190.875 C 747.949219 170.058594 739.164062 154.628906 722.789062 154.628906 C 703.300781 154.628906 692.816406 177.71875 692.816406 211.710938 C 692.816406 245.917969 703.546875 268.792969 723.160156 268.792969 C 739.03125 268.792969 747.761719 254.132812 750.011719 233.050781 L 736.449219 227.195312 C 735.644531 239.621094 730.738281 247.414062 722.789062 247.414062 C 711.933594 247.414062 707.125 233.519531 707.125 211.710938 M 798.359375 225.179688 C 798.359375 238.222656 792.3125 249.339844 782.9375 249.339844 C 775.289062 249.339844 771.59375 242.496094 771.59375 233.519531 C 771.59375 223.683594 776.03125 217.695312 784.542969 217.695312 C 789.230469 217.695312 793.667969 218.765625 798.359375 221.546875 Z M 799.960938 266.871094 L 812.296875 266.871094 L 812.296875 193.324219 C 812.296875 171.515625 802.796875 154.628906 786.023438 154.628906 C 771.613281 154.628906 762.507812 167.25 760.808594 185.007812 L 773.246094 190.382812 L 773.859375 190.511719 C 774.175781 181.84375 778.203125 174.722656 785.777344 174.722656 C 794.660156 174.722656 798.359375 183.277344 798.359375 193.539062 L 798.359375 203.800781 C 795.027344 202.089844 789.355469 200.167969 783.558594 200.167969 C 765.304688 200.167969 757.53125 215.132812 757.53125 234.371094 C 757.53125 253.828125 765.671875 268.792969 779.734375 268.792969 C 788.246094 268.792969 794.78125 263.234375 798.480469 253.828125 L 798.976562 253.828125 Z M 852.753906 177.71875 L 858.179688 177.71875 L 858.179688 155.054688 L 853 155.054688 C 844.984375 155.054688 839.0625 162.753906 836.472656 174.082031 L 835.976562 174.082031 L 834.742188 156.550781 L 822.902344 156.550781 L 822.902344 266.871094 L 836.46875 266.871094 L 836.46875 212.992188 C 836.46875 190.542969 842.023438 177.71875 852.753906 177.71875 M 875.738281 201.234375 C 876.109375 186.910156 880.671875 175.363281 890.910156 175.363281 C 900.53125 175.363281 905.09375 186.695312 905.21875 201.234375 Z M 875.613281 218.550781 L 919.648438 218.550781 L 919.648438 208.289062 C 919.648438 177.929688 909.535156 154.628906 890.910156 154.628906 C 870.804688 154.628906 861.058594 180.070312 861.058594 211.710938 C 861.058594 243.78125 871.789062 268.796875 891.15625 268.796875 C 904.710938 268.796875 914.699219 256.503906 917.910156 239.554688 L 904.949219 233.960938 C 903.347656 242.558594 898.730469 248.269531 891.15625 248.269531 C 880.796875 248.269531 875.613281 236.085938 875.613281 218.550781 M 942.136719 201.234375 C 942.507812 186.910156 947.070312 175.363281 957.308594 175.363281 C 966.929688 175.363281 971.496094 186.695312 971.617188 201.234375 Z M 942.015625 218.550781 L 986.050781 218.550781 L 986.050781 208.289062 C 986.050781 177.929688 975.933594 154.628906 957.308594 154.628906 C 937.203125 154.628906 927.457031 180.070312 927.457031 211.710938 C 927.457031 243.78125 938.191406 268.796875 957.554688 268.796875 C 971.140625 268.796875 981.144531 256.4375 984.332031 239.429688 L 971.378906 233.835938 C 969.800781 242.511719 965.167969 248.273438 957.554688 248.273438 C 947.195312 248.269531 942.015625 236.085938 942.015625 218.550781 M 1024.554688 177.71875 L 1029.980469 177.71875 L 1029.980469 155.054688 L 1024.800781 155.054688 C 1016.78125 155.054688 1010.863281 162.753906 1008.269531 174.082031 L 1007.777344 174.082031 L 1006.542969 156.550781 L 994.703125 156.550781 L 994.703125 266.871094 L 1008.269531 266.871094 L 1008.269531 212.992188 C 1008.269531 190.542969 1013.820312 177.71875 1024.554688 177.71875 M 1072.257812 189.902344 L 1085.773438 184.066406 C 1083.871094 166.367188 1073.488281 154.625 1059.847656 154.625 C 1044.429688 154.625 1035.304688 168.523438 1035.304688 186.691406 C 1035.304688 205.507812 1042.578125 215.554688 1052.941406 219.191406 L 1064.164062 222.824219 C 1069.964844 224.960938 1073.4375 229.234375 1073.4375 235.4375 C 1073.4375 243.132812 1068.359375 247.835938 1060.34375 247.835938 C 1052.523438 247.835938 1047.671875 241.300781 1047.4375 230.859375 L 1047.105469 230.929688 L 1033.730469 236.703125 C 1035.671875 256.246094 1044.882812 268.789062 1060.34375 268.789062 C 1075.144531 268.789062 1087.621094 256.816406 1087.621094 235.4375 C 1087.621094 214.488281 1079.335938 206.574219 1068.238281 202.511719 L 1057.382812 198.878906 C 1052.078125 197.382812 1048.992188 193.53125 1048.992188 186.90625 C 1048.992188 178.78125 1053.3125 174.292969 1059.601562 174.292969 C 1066.664062 174.296875 1071.785156 180.367188 1072.257812 189.902344 "/>
<g clip-path="url(#clip1)" clip-rule="nonzero">
<g clip-path="url(#clip2)" clip-rule="nonzero">
<path style=" stroke:none;fill-rule:nonzero;fill:url(#linear0);" d="M 46.050781 359.117188 L -6.414062 109.558594 L 141.925781 16.085938 L 194.394531 265.644531 Z M 46.050781 359.117188 "/>
</g>
</g>
</g>
</svg>
